<?xml version="1.0" encoding="UTF-8"?>
<svg id="Layer_2" data-name="Layer 2" xmlns="http://www.w3.org/2000/svg" viewBox="0 0 124.31 48.61">
  <defs><style>
    path { fill: #1C1D1F; }
    @media (prefers-color-scheme: dark) {
      path { fill: #FAFAF8; }
    }
  </style></defs>
  <path d="M52.82,17.73L59.33,0h1.22l6.44,17.73h-1.22L59.91,1.47l-5.9,16.27h-1.19ZM55.58,12.11l.38-.96h7.9l.38.96h-8.66Z"/>
  <path d="M70.02,17.73V0h1.14v17.73h-1.14Z"/>
  <path d="M12.16,15.26l.08.42c-2.11.36-3.88,1.28-5.33,2.77-1.45,1.49-2.17,3.01-2.17,4.57,0,1,.35,1.86,1.06,2.58.71.72,1.78,1.2,3.23,1.43.49-2.13,1.67-4,3.54-5.62,1.87-1.62,4.05-2.43,6.53-2.43,1.17,0,2.05.19,2.64.58.59.39.89.9.89,1.54,0,1.41-1.15,2.83-3.46,4.25-2.3,1.42-5.12,2.13-8.45,2.13-.56,0-.98,0-1.24-.03-.06.4-.08.78-.08,1.16,0,1.24.36,2.32,1.09,3.23.72.91,1.83,1.53,3.32,1.85.7-1.47,1.64-2.9,2.82-4.29,1.19-1.39,2.53-2.66,4.04-3.8,1.5-1.14,3.19-2.06,5.07-2.75,1.87-.7,3.78-1.04,5.73-1.04s2.92.63,2.92,1.89c0,.88-.52,1.93-1.57,3.15-1.04,1.21-2.39,2.38-4.04,3.51-1.65,1.13-3.63,2.08-5.94,2.86-2.31.78-4.6,1.17-6.86,1.17-.38,0-.66,0-.85-.03-.23.49-.42.97-.59,1.44,1.79.24,3.3.72,4.54,1.41,2.43-1.26,4.47-1.89,6.12-1.89.92,0,1.62.21,2.1.63s.72.98.72,1.68c0,1.05-.5,2.14-1.51,3.26-1.01,1.12-2.36,1.92-4.05,2.41-.43,1.41-1.51,2.65-3.22,3.71-1.71,1.06-3.73,1.59-6.07,1.59-.96,0-1.98-.11-3.05-.34l.28-.25c.71.13,1.47.2,2.26.2,2.05,0,3.87-.45,5.45-1.34,1.58-.89,2.64-2,3.19-3.32-.79.13-1.5.2-2.12.2-2.84,0-4.78-.78-5.81-2.34-3.16,1.81-6.06,2.71-8.69,2.71-1.43,0-2.57-.31-3.41-.92-.85-.61-1.27-1.36-1.27-2.24,0-1.39,1-2.63,3.01-3.72,2-1.09,4.91-1.64,8.71-1.64.3,0,.73.02,1.3.06.21-.6.4-1.1.56-1.5-1.6-.34-2.79-1-3.57-1.98-.78-.98-1.17-2.13-1.17-3.47,0-.49.04-.93.11-1.33-1.73-.21-3.02-.7-3.88-1.48-.86-.78-1.28-1.72-1.28-2.81,0-1.62.79-3.21,2.38-4.78,1.59-1.57,3.59-2.59,6-3.06ZM11.48,35.97c-3.41,0-6.03.53-7.87,1.58-1.84,1.05-2.77,2.23-2.77,3.53,0,.77.35,1.41,1.06,1.92.71.51,1.69.76,2.95.76,2.01,0,4.72-1.01,8.13-3.02-.28-.62-.42-1.35-.42-2.19s.11-1.68.34-2.53c-.6-.04-1.07-.06-1.41-.06ZM10.95,27.17c1.94,0,3.8-.34,5.57-1.02,1.78-.68,3.16-1.47,4.15-2.38.99-.91,1.48-1.75,1.48-2.53,0-1.13-1.11-1.69-3.34-1.69s-4.22.76-5.97,2.29c-1.75,1.52-2.84,3.28-3.27,5.28.56.04,1.03.06,1.38.06ZM14.39,36.17c-.32,1-.48,1.8-.48,2.41s.05,1.12.14,1.54c2.14-1.3,3.65-2.18,4.51-2.65-1.19-.66-2.58-1.09-4.18-1.3ZM19.1,37.8l-4.8,3.08c.77,1.66,2.53,2.48,5.28,2.48.55,0,1.17-.07,1.86-.2.13-.45.2-.86.2-1.21,0-1.66-.85-3.04-2.54-4.15ZM16.28,33.94c2.07,0,4.19-.38,6.38-1.13,2.18-.75,4.06-1.66,5.63-2.72,1.57-1.06,2.86-2.17,3.87-3.32,1.01-1.15,1.51-2.13,1.51-2.93,0-1.07-.91-1.61-2.74-1.61s-3.8.59-5.91,1.76c-2.12,1.18-4.01,2.64-5.67,4.4-1.66,1.76-3,3.6-3.99,5.52.21.02.52.03.93.03ZM27.29,37.78c0-.62-.22-1.12-.65-1.5-.43-.38-1.07-.56-1.92-.56-1.39,0-3.09.59-5.11,1.78,2.01,1.28,3.02,2.85,3.02,4.71,0,.24-.03.47-.08.68,1.43-.47,2.58-1.2,3.44-2.2.87-1,1.3-1.97,1.3-2.91Z"/>
  <path d="M39.82,43.07c-1.69,0-3.17-.38-4.43-1.15-1.27-.77-2.25-1.84-2.96-3.22-.71-1.38-1.06-2.98-1.06-4.8s.35-3.4,1.06-4.78c.71-1.38,1.7-2.45,2.96-3.23,1.27-.78,2.74-1.17,4.43-1.17s3.22.39,4.5,1.17c1.28.78,2.26,1.85,2.95,3.23.69,1.38,1.04,2.97,1.04,4.78s-.35,3.42-1.04,4.8c-.69,1.38-1.68,2.45-2.95,3.22-1.28.77-2.77,1.15-4.5,1.15ZM39.84,42.04c1.4,0,2.65-.32,3.75-.96,1.1-.64,1.96-1.57,2.58-2.79.62-1.22.94-2.68.94-4.38s-.31-3.17-.94-4.38c-.62-1.22-1.49-2.14-2.58-2.79-1.1-.64-2.35-.96-3.75-.96s-2.65.32-3.75.96c-1.1.64-1.96,1.57-2.6,2.79s-.95,2.68-.95,4.38.32,3.17.95,4.38c.63,1.22,1.5,2.15,2.6,2.79,1.1.64,2.35.96,3.75.96Z"/>
  <path d="M51.49,42.77v-17.73h1.22l10.36,15.86v-15.86h1.14v17.73h-1.19l-10.39-15.91v15.91h-1.14Z"/>
  <path d="M75.64,43.07c-1.67,0-3.13-.38-4.37-1.15-1.24-.77-2.2-1.84-2.88-3.22-.68-1.38-1.01-2.98-1.01-4.8s.34-3.45,1.01-4.81c.68-1.37,1.63-2.44,2.88-3.2,1.24-.77,2.7-1.15,4.37-1.15,1.94,0,3.5.44,4.69,1.33,1.18.89,1.96,2.14,2.33,3.76h-1.27c-.3-1.22-.92-2.2-1.86-2.94-.94-.74-2.23-1.11-3.89-1.11-1.4,0-2.63.32-3.69.96-1.06.64-1.88,1.57-2.48,2.79-.6,1.22-.9,2.68-.9,4.38s.3,3.16.9,4.37c.6,1.21,1.43,2.14,2.48,2.79,1.06.65,2.28.98,3.69.98,1.64,0,2.93-.38,3.89-1.13.95-.75,1.57-1.74,1.86-2.95h1.27c-.37,1.62-1.15,2.88-2.33,3.77-1.18.9-2.74,1.34-4.69,1.34Z"/>
  <path d="M85.82,42.77v-17.73h10.41v.96h-9.27v7.4h8.51v.99h-8.51v7.42h9.27v.96h-10.41Z"/>
  <path d="M99.68,42.77v-17.73h5.17c1.37,0,2.49.22,3.36.65.87.43,1.51,1.02,1.91,1.76.41.74.61,1.6.61,2.56s-.2,1.82-.61,2.57c-.41.75-1.04,1.34-1.9,1.76-.86.42-1.98.63-3.37.63h-4.03v7.8h-1.14ZM100.82,33.98h4.05c1.57,0,2.74-.34,3.51-1.01.77-.68,1.15-1.66,1.15-2.96s-.38-2.29-1.15-2.96c-.77-.68-1.94-1.01-3.51-1.01h-4.05v7.96Z"/>
  <path d="M117.82,42.77v-16.77h-5.37v-.96h11.86v.96h-5.35v16.77h-1.14Z"/>
</svg>